<?xml version="1.0" standalone="no"?>
<!DOCTYPE svg PUBLIC "-//W3C//DTD SVG 20010904//EN"
 "http://www.w3.org/TR/2001/REC-SVG-20010904/DTD/svg10.dtd">
<svg version="1.0" xmlns="http://www.w3.org/2000/svg"
 width="263.000000pt" height="263.000000pt" viewBox="0 0 263.000000 263.000000"
 preserveAspectRatio="xMidYMid meet">
<metadata>
Created by potrace 1.11, written by Peter Selinger 2001-2013
</metadata>
<g transform="translate(0.000000,263.000000) scale(0.100000,-0.100000)"
fill="#000000" stroke="none">
<path d="M1165 2609 c-22 -4 -58 -9 -80 -12 -62 -9 -212 -55 -274 -84 -31 -15
-61 -27 -68 -29 -11 -2 -149 -85 -178 -106 -95 -70 -265 -235 -265 -256 0 -6
-4 -12 -9 -14 -21 -8 -162 -238 -145 -238 3 0 -1 -6 -9 -14 -16 -17 -85 -217
-91 -267 -3 -19 -5 -34 -6 -34 -3 0 -10 -43 -16 -105 -9 -84 -9 -200 -1 -270
13 -103 18 -133 22 -140 2 -4 7 -21 10 -39 6 -37 49 -170 63 -197 5 -11 20
-41 33 -69 13 -27 28 -53 32 -56 5 -3 9 -10 9 -15 -1 -16 108 -173 133 -192
13 -11 22 -21 20 -24 -12 -11 195 -190 285 -246 59 -37 211 -108 280 -132 113
-38 304 -70 422 -70 59 0 108 3 108 8 0 4 12 7 28 8 51 1 133 14 152 24 11 6
23 10 27 9 4 -1 11 0 16 1 4 1 10 3 15 4 62 14 212 76 212 88 0 5 4 7 9 4 13
-8 158 82 242 151 108 88 197 187 272 300 36 55 67 106 69 114 2 8 6 16 9 19
25 20 109 284 125 391 13 85 16 304 4 359 -29 146 -54 240 -62 240 -5 0 -7 4
-4 9 9 14 -62 175 -112 255 -20 32 -22 43 -13 63 32 70 22 192 -22 258 -31 46
-69 85 -79 79 -4 -3 -8 -1 -8 4 0 17 -76 44 -135 49 -40 3 -75 0 -105 -11 -49
-17 -46 -18 -152 42 -61 35 -179 82 -189 76 -5 -3 -9 -1 -9 3 0 9 -126 43
-215 59 -55 10 -301 12 -350 3z m325 -234 c14 -3 41 -8 60 -11 19 -3 38 -8 43
-11 4 -2 19 -7 34 -9 33 -6 132 -48 203 -85 l55 -29 0 -78 c0 -64 5 -88 25
-126 51 -101 171 -168 278 -156 l54 6 44 -91 c24 -51 44 -99 44 -108 0 -9 4
-18 9 -21 5 -3 11 -18 14 -33 10 -55 18 -88 23 -103 23 -63 23 -310 -1 -415
-9 -44 -18 -84 -19 -90 -1 -5 -4 -14 -7 -20 -3 -5 -12 -30 -19 -55 -19 -62
-83 -182 -138 -260 -51 -72 -196 -222 -206 -213 -3 4 -6 2 -6 -4 0 -5 -16 -18
-35 -29 -19 -10 -35 -21 -35 -25 0 -18 -262 -132 -330 -144 -14 -2 -36 -7 -50
-10 -68 -16 -303 -24 -355 -12 -11 3 -40 8 -65 12 -64 11 -184 52 -263 91
-322 158 -550 478 -592 830 -14 114 -5 306 16 361 5 13 8 27 7 31 -8 30 98
274 148 339 14 18 23 33 20 33 -4 0 2 8 11 18 10 10 38 42 63 71 48 58 156
149 235 198 110 69 284 133 405 148 30 4 56 8 58 10 5 4 246 -4 272 -10z"/>
<path d="M1199 1692 c-109 -37 -193 -114 -246 -228 -24 -51 -28 -71 -28 -154
0 -86 3 -101 32 -163 84 -176 278 -270 461 -223 82 21 138 54 197 117 183 195
122 511 -122 631 -82 40 -207 48 -294 20z"/>
</g>
</svg>
